<svg width="75" height="75" viewBox="0 0 75 75" fill="none" xmlns="http://www.w3.org/2000/svg">
    <path d="M75 37.5C75 58.2107 58.2107 75 37.5 75C16.7893 75 0 58.2107 0 37.5C0 16.7893 16.7893 0 37.5 0C58.2107 0 75 16.7893 75 37.5Z" fill="url(#paint0_linear_118_25)"/>
    <path d="M14.2119 40.1662V35.7344L29.6381 29.2571V34.1044L19.4534 37.9077L19.6132 37.6733V38.2379L19.4534 37.9929L29.6381 41.8068V46.6435L14.2119 40.1662ZM43.9802 23.9091L36.949 50.0312H32.5065L39.5377 23.9091H43.9802ZM62.2748 40.1662L46.8486 46.6435V41.8068L57.0333 37.9929L56.8841 38.2379V37.6733L57.0333 37.9077L46.8486 34.1044V29.2571L62.2748 35.7344V40.1662Z" fill="white"/>
    <defs>
        <linearGradient id="paint0_linear_118_25" x1="0" y1="37.5" x2="75" y2="37.5" gradientUnits="userSpaceOnUse">
            <stop stop-color="#8A2387"/>
            <stop offset="0.494792" stop-color="#E94057"/>
            <stop offset="1" stop-color="#F27121"/>
        </linearGradient>
    </defs>
</svg>
